<svg width="24" height="24" viewBox="0 0 24 24" fill="none" xmlns="http://www.w3.org/2000/svg" data-reactroot="">
<path fill="none" d="M8.41 4.85C9.52 4.29 10.76 4 12 4C15.54 4 17.83 6.23 20.18 9.57C20.5 10.02 21.12 10.13 21.57 9.81C22.02 9.49 22.13 8.87 21.81 8.42C19.47 5.09 16.66 2 12 2C10.45 2 8.89 2.37 7.51 3.07C4.11 4.78 2 8.2 2 12C2 17.51 6.49 22 12 22C15.8 22 19.22 19.89 20.93 16.49C21.18 16 20.98 15.4 20.49 15.15C20 14.9 19.4 15.1 19.15 15.59C17.78 18.31 15.04 20 12 20C7.59 20 4 16.41 4 12C4 8.96 5.69 6.22 8.41 4.85Z" undefined="1"></path>
<path fill="none" d="M21 3C20.45 3 20 3.45 20 4V8H16C15.45 8 15 8.45 15 9C15 9.55 15.45 10 16 10H21C21.55 10 22 9.55 22 9V4C22 3.45 21.55 3 21 3Z" undefined="1"></path>
</svg>